<svg width="512" height="512" viewBox="0 0 512 512" xmlns="http://www.w3.org/2000/svg">
  <!-- Background rounded rectangle -->
  <rect x="20" y="20" width="472" height="472" rx="90" ry="90" fill="#F5F5DC" stroke="#2C3E50" stroke-width="8"/>
  
  <!-- Left brain hemisphere -->
  <g>
    <!-- Brain outline left -->
    <path d="M120 180 Q100 150 130 130 Q160 120 180 140 Q200 160 190 190 Q180 220 170 250 Q160 280 150 310 Q140 340 160 360 Q180 380 200 360 Q220 340 210 320 Q200 300 190 280" 
          fill="none" stroke="#2C3E50" stroke-width="6"/>
    
    <!-- Neural network nodes - left side -->
    <circle cx="140" cy="150" r="8" fill="#7FB3D3" stroke="#2C3E50" stroke-width="3"/>
    <circle cx="165" cy="140" r="6" fill="#F4A6CD" stroke="#2C3E50" stroke-width="3"/>
    <circle cx="190" cy="160" r="7" fill="#A8E6CF" stroke="#2C3E50" stroke-width="3"/>
    <circle cx="120" cy="180" r="6" fill="#FFD3A5" stroke="#2C3E50" stroke-width="3"/>
    <circle cx="170" cy="200" r="8" fill="#7FB3D3" stroke="#2C3E50" stroke-width="3"/>
    <circle cx="145" cy="220" r="6" fill="#F4A6CD" stroke="#2C3E50" stroke-width="3"/>
    <circle cx="195" cy="240" r="7" fill="#A8E6CF" stroke="#2C3E50" stroke-width="3"/>
    <circle cx="130" cy="260" r="6" fill="#FFD3A5" stroke="#2C3E50" stroke-width="3"/>
    <circle cx="180" cy="280" r="8" fill="#7FB3D3" stroke="#2C3E50" stroke-width="3"/>
    <circle cx="155" cy="300" r="6" fill="#F4A6CD" stroke="#2C3E50" stroke-width="3"/>
    
    <!-- Connecting lines - left side -->
    <line x1="140" y1="150" x2="165" y2="140" stroke="#2C3E50" stroke-width="3"/>
    <line x1="165" y1="140" x2="190" y2="160" stroke="#2C3E50" stroke-width="3"/>
    <line x1="140" y1="150" x2="120" y2="180" stroke="#2C3E50" stroke-width="3"/>
    <line x1="120" y1="180" x2="170" y2="200" stroke="#2C3E50" stroke-width="3"/>
    <line x1="170" y1="200" x2="145" y2="220" stroke="#2C3E50" stroke-width="3"/>
    <line x1="145" y1="220" x2="195" y2="240" stroke="#2C3E50" stroke-width="3"/>
    <line x1="195" y1="240" x2="130" y2="260" stroke="#2C3E50" stroke-width="3"/>
    <line x1="130" y1="260" x2="180" y2="280" stroke="#2C3E50" stroke-width="3"/>
    <line x1="180" y1="280" x2="155" y2="300" stroke="#2C3E50" stroke-width="3"/>
  </g>
  
  <!-- Right brain hemisphere -->
  <g>
    <!-- Brain outline right -->
    <path d="M392 180 Q412 150 382 130 Q352 120 332 140 Q312 160 322 190 Q332 220 342 250 Q352 280 362 310 Q372 340 352 360 Q332 380 312 360 Q292 340 302 320 Q312 300 322 280" 
          fill="none" stroke="#2C3E50" stroke-width="6"/>
    
    <!-- Neural network nodes - right side -->
    <circle cx="372" cy="150" r="8" fill="#7FB3D3" stroke="#2C3E50" stroke-width="3"/>
    <circle cx="347" cy="140" r="6" fill="#F4A6CD" stroke="#2C3E50" stroke-width="3"/>
    <circle cx="322" cy="160" r="7" fill="#A8E6CF" stroke="#2C3E50" stroke-width="3"/>
    <circle cx="392" cy="180" r="6" fill="#FFD3A5" stroke="#2C3E50" stroke-width="3"/>
    <circle cx="342" cy="200" r="8" fill="#7FB3D3" stroke="#2C3E50" stroke-width="3"/>
    <circle cx="367" cy="220" r="6" fill="#F4A6CD" stroke="#2C3E50" stroke-width="3"/>
    <circle cx="317" cy="240" r="7" fill="#A8E6CF" stroke="#2C3E50" stroke-width="3"/>
    <circle cx="382" cy="260" r="6" fill="#FFD3A5" stroke="#2C3E50" stroke-width="3"/>
    <circle cx="332" cy="280" r="8" fill="#7FB3D3" stroke="#2C3E50" stroke-width="3"/>
    <circle cx="357" cy="300" r="6" fill="#F4A6CD" stroke="#2C3E50" stroke-width="3"/>
    
    <!-- Connecting lines - right side -->
    <line x1="372" y1="150" x2="347" y2="140" stroke="#2C3E50" stroke-width="3"/>
    <line x1="347" y1="140" x2="322" y2="160" stroke="#2C3E50" stroke-width="3"/>
    <line x1="372" y1="150" x2="392" y2="180" stroke="#2C3E50" stroke-width="3"/>
    <line x1="392" y1="180" x2="342" y2="200" stroke="#2C3E50" stroke-width="3"/>
    <line x1="342" y1="200" x2="367" y2="220" stroke="#2C3E50" stroke-width="3"/>
    <line x1="367" y1="220" x2="317" y2="240" stroke="#2C3E50" stroke-width="3"/>
    <line x1="317" y1="240" x2="382" y2="260" stroke="#2C3E50" stroke-width="3"/>
    <line x1="382" y1="260" x2="332" y2="280" stroke="#2C3E50" stroke-width="3"/>
    <line x1="332" y1="280" x2="357" y2="300" stroke="#2C3E50" stroke-width="3"/>
  </g>
  
  <!-- Center connecting elements -->
  <line x1="256" y1="100" x2="256" y2="140" stroke="#2C3E50" stroke-width="6"/>
  <line x1="256" y1="200" x2="256" y2="240" stroke="#2C3E50" stroke-width="6"/>
  <line x1="256" y1="300" x2="256" y2="340" stroke="#2C3E50" stroke-width="6"/>
  <line x1="256" y1="380" x2="256" y2="420" stroke="#2C3E50" stroke-width="6"/>
  
  <!-- Center nodes -->
  <circle cx="256" cy="170" r="8" fill="#7FB3D3" stroke="#2C3E50" stroke-width="3"/>
  <circle cx="256" cy="270" r="8" fill="#7FB3D3" stroke="#2C3E50" stroke-width="3"/>
  <circle cx="256" cy="350" r="6" fill="#A8E6CF" stroke="#2C3E50" stroke-width="3"/>
  <circle cx="256" cy="400" r="6" fill="#F4A6CD" stroke="#2C3E50" stroke-width="3"/>
  
  <!-- Additional peripheral nodes -->
  <circle cx="80" cy="120" r="6" fill="#A8E6CF" stroke="#2C3E50" stroke-width="3"/>
  <circle cx="432" cy="120" r="6" fill="#A8E6CF" stroke="#2C3E50" stroke-width="3"/>
  <circle cx="100" cy="350" r="6" fill="#F4A6CD" stroke="#2C3E50" stroke-width="3"/>
  <circle cx="412" cy="350" r="6" fill="#F4A6CD" stroke="#2C3E50" stroke-width="3"/>
  <circle cx="200" cy="400" r="5" fill="#FFD3A5" stroke="#2C3E50" stroke-width="3"/>
  <circle cx="312" cy="400" r="5" fill="#FFD3A5" stroke="#2C3E50" stroke-width="3"/>
  
  <!-- Additional connecting lines -->
  <line x1="80" y1="120" x2="140" y2="150" stroke="#2C3E50" stroke-width="3"/>
  <line x1="432" y1="120" x2="372" y2="150" stroke="#2C3E50" stroke-width="3"/>
  <line x1="100" y1="350" x2="155" y2="300" stroke="#2C3E50" stroke-width="3"/>
  <line x1="412" y1="350" x2="357" y2="300" stroke="#2C3E50" stroke-width="3"/>
  <line x1="200" y1="400" x2="256" y2="350" stroke="#2C3E50" stroke-width="3"/>
  <line x1="312" y1="400" x2="256" y2="350" stroke="#2C3E50" stroke-width="3"/>
</svg>